<?xml version="1.0" standalone="no"?>
<!DOCTYPE svg PUBLIC "-//W3C//DTD SVG 20010904//EN"
 "http://www.w3.org/TR/2001/REC-SVG-20010904/DTD/svg10.dtd">
<svg version="1.0" xmlns="http://www.w3.org/2000/svg"
 width="1004.000000pt" height="812.000000pt" viewBox="0 0 1004.000000 812.000000"
 preserveAspectRatio="xMidYMid meet">

<g transform="translate(0.000000,812.000000) scale(0.100000,-0.100000)"
fill="#000000" stroke="none">
<path d="M6705 8100 c-249 -16 -675 -98 -675 -130 0 -20 473 -1915 479 -1923
4 -4 39 0 77 10 111 27 323 23 444 -9 182 -49 325 -130 456 -262 132 -131 213
-274 262 -456 21 -81 25 -117 25 -240 0 -123 -4 -159 -25 -240 -50 -185 -131
-326 -267 -460 -125 -124 -309 -230 -443 -255 -21 -4 -38 -12 -38 -18 0 -6
230 -927 510 -2048 281 -1121 510 -2040 510 -2043 0 -3 448 -6 995 -6 547 0
995 1 995 3 0 1 -182 727 -404 1614 l-403 1612 78 106 c412 556 622 1257 579
1936 -40 632 -260 1207 -650 1699 -103 130 -322 349 -455 455 -583 466 -1317
700 -2050 655z"/>
<path d="M135 7553 c68 -269 515 -2052 995 -3963 479 -1911 876 -3492 881
-3512 l10 -38 995 0 c943 0 995 1 990 18 -3 9 -449 1801 -991 3982 -542 2181
-988 3973 -991 3983 -5 16 -62 17 -1009 17 l-1003 0 123 -487z"/>
<path d="M3135 7553 c68 -269 515 -2052 995 -3963 479 -1911 876 -3492 881
-3512 l10 -38 995 0 c943 0 995 1 990 18 -3 9 -449 1801 -991 3982 -542 2181
-988 3973 -991 3983 -5 16 -62 17 -1009 17 l-1003 0 123 -487z"/>
</g>
</svg>
