<?xml version="1.0" encoding="UTF-8" standalone="no"?>
<svg xmlns="http://www.w3.org/2000/svg" version="1.1" viewBox="0 0 53.559204 55.355999">
  <path d="m 28.476,43.164 c -1.918,-3.775 -4.168,-7.588 -8.557,-7.588 -0.839,0 -1.677,0.139 -2.446,0.49 l -1.491,-2.984 c 1.817,-1.559 4.753,-2.795 8.527,-2.795 5.871,0 8.884,2.828 11.276,6.438 1.42,-3.082 2.095,-7.244 2.095,-12.403 0,-12.883 -4.029,-19.498 -13.44,-19.498 -9.274,0 -13.281,6.615 -13.281,19.498 0,12.815 4.007,19.362 13.281,19.362 1.474,0 2.809,-0.162 4.036,-0.52 z m 2.299,4.496 C 28.742,48.205 26.582,48.506 24.44,48.506 12.091,48.506 0,38.652 0,24.322 0,9.856 12.091,0 24.44,0 c 12.556,0 24.531,9.785 24.531,24.322 0,8.086 -3.773,14.657 -9.257,18.904 1.772,2.655 3.596,4.418 6.136,4.418 2.772,0 3.89,-2.142 4.077,-3.822 h 3.61 c 0.211,2.237 -0.908,11.534 -10.997,11.534 -6.111,0 -9.342,-3.542 -11.765,-7.696 z" style="fill:#ffffff"/>
</svg>
