<?xml version="1.0" encoding="utf-8"?>
<!-- Generator: Adobe Illustrator 23.0.4, SVG Export Plug-In . SVG Version: 6.00 Build 0)  -->
<svg version="1.1" id="Layer_1" xmlns="http://www.w3.org/2000/svg" xmlns:xlink="http://www.w3.org/1999/xlink" x="0px" y="0px"
	 viewBox="0 0 44.5 46" style="enable-background:new 0 0 44.5 46;" xml:space="preserve">
<style type="text/css">
	.st0{fill:#FFFFFF;}
</style>
<path class="st0" d="M23.7,35.9c-1.6-3.1-3.5-6.3-7.1-6.3c-0.7,0-1.4,0.1-2,0.4l-1.2-2.5c1.5-1.3,3.9-2.3,7.1-2.3
	c4.9,0,7.4,2.4,9.4,5.3c1.2-2.6,1.7-6,1.7-10.3C31.5,9.5,28.1,4,20.3,4c-7.7,0-11,5.5-11,16.2c0,10.6,3.3,16.1,11,16.1
	C21.5,36.3,22.6,36.2,23.7,35.9z M25.6,39.6c-1.7,0.5-3.5,0.7-5.3,0.7C10,40.3,0,32.1,0,20.2C0,8.2,10,0,20.3,0
	c10.4,0,20.4,8.1,20.4,20.2c0,6.7-3.1,12.2-7.7,15.7c1.5,2.2,3,3.7,5.1,3.7c2.3,0,3.2-1.8,3.4-3.2h3c0.2,1.9-0.8,9.6-9.1,9.6
	C30.3,46,27.6,43.1,25.6,39.6z"/>
</svg>
